#!OML:ASF F:\VICON\USERDATA\INSTALL\rory3\rory3.ASF
:FULLY-SPECIFIED
:DEGREES
1017
root -0.963764 17.3352 1.39889 4.85112 -17.4697 -0.192906
lowerback 9.91087 4.59869 3.62646
upperback -1.25473 6.44785 -1.97252
thorax -6.23545 3.00668 -5.05188
lowerneck -17.2973 -9.36668 -13.7221
upperneck 18.8907 -11.8526 11.0053
head 10.4107 -5.32546 4.37085
rclavicle 9.70442e-014 -4.57205e-015
rhumerus 47.7376 -3.87772 -57.5722
rradius 66.1432
rwrist -28.1063
rhand 0.67788 20.5864
rfingers 7.12502
rthumb 26.2395 -7.6194
lclavicle 9.70442e-014 -4.57205e-015
lhumerus 2.02974 -2.97549 76.8008
lradius 131.005
lwrist -5.20691
lhand -9.91617 5.38811
lfingers 7.12502
lthumb 16.0644 34.7422
rfemur 3.10303 -8.25689 16.9771
rtibia 44.3486
rfoot -20.3539 -15.5483
rtoes 3.30595
lfemur -38.0924 -11.4562 -3.59306
ltibia 33.2926
lfoot 12.3326 -11.9372
ltoes -26.0791
1018
root -1.00587 17.2778 1.47516 4.89398 -17.2084 -0.000876937
lowerback 9.54609 4.88362 3.93236
upperback -1.64701 6.85553 -2.07915
thorax -6.35487 3.18499 -5.37229
lowerneck -16.4338 -9.51384 -13.8387
upperneck 19.2077 -12.1014 10.6906
head 10.3837 -5.51067 4.26178
rclavicle -1.31446e-014 -2.98177e-014
rhumerus 51.975 2.11985 -53.2289
rradius 65.8493
rwrist -25.6896
rhand 2.45253 22.6058
rfingers 7.12502
rthumb 27.9373 -5.33572
lclavicle -1.31446e-014 -2.98177e-014
lhumerus 0.425286 -2.44615 77.871
lradius 130.587
lwrist -7.38498
lhand -11.8019 3.10865
lfingers 7.12502
lthumb 14.2479 32.5999
rfemur 4.31752 -7.61116 16.8192
rtibia 42.2543
rfoot -20.5667 -16.3678
rtoes 4.23912
lfemur -37.901 -11.1008 -3.82507
ltibia 34.4617
lfoot 10.134 -12.2695
ltoes -26.1723
1019
root -1.05393 17.2214 1.55817 5.03714 -16.6047 0.157281
lowerback 8.93401 5.13517 4.20049
upperback -2.00282 7.20331 -2.18749
thorax -6.30092 3.3428 -5.63103
lowerneck -15.692 -9.79192 -13.8322
upperneck 19.579 -12.5896 10.4973
head 10.4313 -5.77886 4.13373
rclavicle -6.66115e-014 7.7526e-015
rhumerus 55.9438 7.23089 -48.6357
rradius 66.1076
rwrist -24.4755
rhand 3.57386 22.1919
rfingers 7.12502
rthumb 29.0088 -5.57039
lclavicle -6.66115e-014 7.7526e-015
lhumerus -0.876502 -2.36171 78.9649
lradius 130.847
lwrist -8.08205
lhand -11.3862 3.57034
lfingers 7.12502
lthumb 14.6484 33.0329
rfemur 5.57496 -7.185 16.7666
rtibia 39.8904
rfoot -21.1965 -16.978
rtoes 2.14583
lfemur -37.887 -10.7359 -4.08422
ltibia 35.1873
lfoot 8.33108 -11.7998
ltoes -27.8621
1020
root -1.10898 17.1617 1.64485 5.25513 -15.6847 0.340195
lowerback 8.20723 5.35935 4.28378
upperback -2.37429 7.48611 -2.31578
thorax -6.22201 3.47609 -5.78394
lowerneck -15.0318 -10.1592 -13.8434
upperneck 19.9273 -13.2816 10.6699
head 10.5431 -6.10047 4.10294
rclavicle -8.11414e-014 9.93923e-017
rhumerus 59.5309 11.503 -44.5484
rradius 66.6858
rwrist -23.7787
rhand 4.76417 21.9175
rfingers 7.12502
rthumb 30.145 -5.64343
lclavicle -8.11414e-014 9.93923e-017
lhumerus -2.02558 -2.78799 80.1682
lradius 131.09
lwrist -8.83151
lhand -10.7368 4.20379
lfingers 7.12502
lthumb 15.274 33.6198
rfemur 6.80464 -7.01057 16.7557
rtibia 37.3998
rfoot -22.2531 -17.511
rtoes -3.03966
lfemur -38.16 -10.3058 -4.41528
ltibia 35.5246
lfoot 6.85175 -12.205
ltoes -26.6367
1021
root -1.1742 17.1022 1.73362 5.43296 -14.4127 0.658667
lowerback 7.52393 5.57441 4.10366
upperback -2.80094 7.72317 -2.57268
thorax -6.24562 3.58924 -5.92829
lowerneck -13.9557 -10.5673 -13.7893
upperneck 19.8061 -14.1842 11.3395
head 10.4747 -6.48405 4.21818
rclavicle 2.34814e-014 2.88238e-015
rhumerus 62.5073 15.1809 -41.5389
rradius 67.3602
rwrist -22.7975
rhand 6.35371 22.1203
rfingers 7.12502
rthumb 31.6603 -5.15317
lclavicle 2.34814e-014 2.88238e-015
lhumerus -3.03729 -3.94075 81.3356
lradius 131.125
lwrist -9.56372
lhand -10.6864 4.10995
lfingers 7.12502
lthumb 15.3226 33.5223
rfemur 8.09139 -7.14858 16.6652
rtibia 34.9672
rfoot -23.5435 -18.072
rtoes -7.8192
lfemur -38.6137 -9.87477 -5.00782
ltibia 35.6678
lfoot 5.85737 -14.9753
ltoes -25.2605
1022
root -1.24557 17.0445 1.81493 5.57845 -12.8118 0.964011
lowerback 6.85408 5.76609 3.88189
upperback -3.09925 7.92047 -2.91764
thorax -6.13716 3.69138 -6.12587
lowerneck -13.1174 -11.0724 -13.4777
upperneck 19.5936 -15.2629 12.1129
head 10.4383 -6.9155 4.28989
rclavicle 1.46753e-013 2.34566e-014
rhumerus 65.1432 18.2522 -39.4731
rradius 67.8441
rwrist -21.3523
rhand 7.72959 22.1727
rfingers 7.12502
rthumb 32.9699 -4.83387
lclavicle 1.46753e-013 2.34566e-014
lhumerus -3.58187 -5.68089 82.3659
lradius 130.914
lwrist -10.3464
lhand -11.2723 3.37333
lfingers 7.12502
lthumb 14.7582 32.8279
rfemur 9.34495 -7.49015 16.7159
rtibia 32.807
rfoot -24.7881 -18.5187
rtoes -8.93303
lfemur -39.1628 -9.39991 -5.74269
ltibia 35.9032
lfoot 5.62824 -16.6796
ltoes -22.4293
1023
root -1.31544 16.9827 1.88618 5.78118 -11.058 1.11329
lowerback 5.90371 5.90092 3.75931
upperback -2.99768 8.04587 -3.21317
thorax -5.44661 3.7883 -6.24374
lowerneck -13.1049 -11.687 -12.9607
upperneck 19.2608 -16.4053 12.837
head 10.5078 -7.33453 4.25882
rclavicle -2.25372e-014 1.31198e-014
rhumerus 67.9441 20.7354 -38.0312
rradius 67.9651
rwrist -19.3425
rhand 7.94874 23.1251
rfingers 7.12502
rthumb 33.1783 -3.83729
lclavicle -2.25372e-014 1.31198e-014
lhumerus -3.2173 -7.56472 83.2181
lradius 131.22
lwrist -9.98783
lhand -10.6151 4.18815
lfingers 7.12502
lthumb 15.3913 33.5952
rfemur 10.3333 -7.96384 16.9741
rtibia 31.1254
rfoot -25.4245 -18.6826
rtoes -8.16913
lfemur -39.8554 -8.90576 -6.38948
ltibia 36.3965
lfoot 5.47588 -17.4658
ltoes -19.7499
